<svg width="19" height="19" viewBox="0 0 19 19" fill="none" xmlns="http://www.w3.org/2000/svg">
<g clip-path="url(#clip0_1374_3243)">
<path d="M7.91667 4.22223H12.6667V5.27778H7.91667V4.22223Z" fill="black"/>
<path d="M7.91667 6.33331H12.6667V7.38887H7.91667V6.33331Z" fill="black"/>
<path d="M7.91667 8.44446H12.6667V9.50001H7.91667V8.44446Z" fill="black"/>
<path d="M7.91667 10.5555H12.6667V11.6111H7.91667V10.5555Z" fill="black"/>
<path d="M7.91667 12.6667H12.6667V13.7222H7.91667V12.6667Z" fill="black"/>
<path d="M5.80556 4.22223H6.86111V5.27778H5.80556V4.22223Z" fill="black"/>
<path d="M5.80556 6.33331H6.86111V7.38887H5.80556V6.33331Z" fill="black"/>
<path d="M5.80556 8.44446H6.86111V9.50001H5.80556V8.44446Z" fill="black"/>
<path d="M5.80556 10.5555H6.86111V11.6111H5.80556V10.5555Z" fill="black"/>
<path d="M5.80556 12.6667H6.86111V13.7222H5.80556V12.6667Z" fill="black"/>
<path d="M14.7778 1.05554H4.22223C3.94228 1.05554 3.67379 1.16675 3.47584 1.36471C3.27788 1.56266 3.16667 1.83115 3.16667 2.1111V16.8889C3.16667 17.1688 3.27788 17.4373 3.47584 17.6353C3.67379 17.8332 3.94228 17.9444 4.22223 17.9444H14.7778C15.0577 17.9444 15.3262 17.8332 15.5242 17.6353C15.7221 17.4373 15.8333 17.1688 15.8333 16.8889V2.1111C15.8333 1.83115 15.7221 1.56266 15.5242 1.36471C15.3262 1.16675 15.0577 1.05554 14.7778 1.05554ZM14.7778 16.8889H4.22223V2.1111H14.7778V16.8889Z" fill="black"/>
</g>
<defs>
<clipPath id="clip0_1374_3243">
<rect width="19" height="19" fill="white"/>
</clipPath>
</defs>
</svg>
