<svg width="19" height="19" viewBox="0 0 19 19" fill="none" xmlns="http://www.w3.org/2000/svg">
<g clip-path="url(#clip0_1374_3262)">
<path d="M9.5 19C4.25303 19 0 14.747 0 9.5C0 4.25303 4.25303 0 9.5 0C14.747 0 19 4.25303 19 9.5C19 12.0196 17.9991 14.4359 16.2175 16.2175C14.4359 17.9991 12.0196 19 9.5 19ZM9.5 1.1875C4.90912 1.1875 1.1875 4.90912 1.1875 9.5C1.1875 14.0909 4.90912 17.8125 9.5 17.8125C14.0909 17.8125 17.8125 14.0909 17.8125 9.5C17.8125 7.29539 16.9367 5.18107 15.3778 3.62217C13.8189 2.06328 11.7046 1.1875 9.5 1.1875Z" fill="#141718"/>
<path d="M13.6562 8.90625H10.0938V5.34375H8.90625V8.90625H5.34375V10.0938H8.90625V13.6562H10.0938V10.0938H13.6562V8.90625Z" fill="#141718"/>
</g>
<defs>
<clipPath id="clip0_1374_3262">
<rect width="19" height="19" fill="white"/>
</clipPath>
</defs>
</svg>
