<svg width="19" height="19" viewBox="0 0 19 19" fill="none" xmlns="http://www.w3.org/2000/svg">
<path d="M7.125 2.375C7.71216 2.375 8.28614 2.54911 8.77435 2.87532C9.26256 3.20153 9.64307 3.66519 9.86777 4.20766C10.0925 4.75013 10.1513 5.34704 10.0367 5.92292C9.92216 6.49881 9.63941 7.02779 9.22422 7.44297C8.80904 7.85816 8.28006 8.14091 7.70417 8.25546C7.12829 8.37001 6.53138 8.31122 5.98891 8.08652C5.44644 7.86182 4.98278 7.48131 4.65657 6.9931C4.33036 6.50489 4.15625 5.93091 4.15625 5.34375C4.15625 4.55639 4.46903 3.80128 5.02578 3.24453C5.58253 2.68778 6.33764 2.375 7.125 2.375ZM7.125 1.1875C6.30297 1.1875 5.4994 1.43126 4.81591 1.88795C4.13242 2.34465 3.5997 2.99377 3.28513 3.75322C2.97055 4.51268 2.88824 5.34836 3.04861 6.15459C3.20898 6.96083 3.60483 7.7014 4.18609 8.28266C4.76735 8.86392 5.50792 9.25977 6.31416 9.42014C7.12039 9.58051 7.95607 9.4982 8.71553 9.18362C9.47498 8.86905 10.1241 8.33633 10.5808 7.65284C11.0375 6.96935 11.2812 6.16578 11.2812 5.34375C11.2812 4.24144 10.8434 3.18429 10.0639 2.40484C9.28446 1.62539 8.22731 1.1875 7.125 1.1875ZM13.0625 17.8125H11.875V14.8438C11.875 14.0564 11.5622 13.3013 11.0055 12.7445C10.4487 12.1878 9.69361 11.875 8.90625 11.875H5.34375C4.55639 11.875 3.80128 12.1878 3.24453 12.7445C2.68778 13.3013 2.375 14.0564 2.375 14.8438V17.8125H1.1875V14.8438C1.1875 13.7414 1.62539 12.6843 2.40484 11.9048C3.18429 11.1254 4.24144 10.6875 5.34375 10.6875H8.90625C10.0086 10.6875 11.0657 11.1254 11.8452 11.9048C12.6246 12.6843 13.0625 13.7414 13.0625 14.8438V17.8125ZM13.0625 2.375H19V3.5625H13.0625V2.375ZM13.0625 5.34375H19V6.53125H13.0625V5.34375ZM13.0625 8.3125H17.2188V9.5H13.0625V8.3125Z" fill="black"/>
</svg>
