<svg width="19" height="19" viewBox="0 0 19 19" fill="none" xmlns="http://www.w3.org/2000/svg">
<path d="M3.16666 6.33333C3.16666 4.65363 3.83392 3.04272 5.02165 1.85499C6.20938 0.66726 7.82029 0 9.49999 0C11.1797 0 12.7906 0.66726 13.9783 1.85499C15.1661 3.04272 15.8333 4.65363 15.8333 6.33333V10.0518L17.4167 12.4268V15.8333H12.9746C12.7945 16.62 12.3528 17.3223 11.7217 17.8253C11.0906 18.3283 10.3074 18.6022 9.50039 18.6022C8.69336 18.6022 7.91021 18.3283 7.27909 17.8253C6.64797 17.3223 6.20623 16.62 6.02616 15.8333H1.58333V12.4268L3.16666 10.0518V6.33333ZM7.68549 15.8333C7.83938 16.1866 8.09305 16.4873 8.41537 16.6985C8.73769 16.9096 9.11465 17.0221 9.49999 17.0221C9.88533 17.0221 10.2623 16.9096 10.5846 16.6985C10.9069 16.4873 11.1606 16.1866 11.3145 15.8333H7.68549ZM9.49999 1.58333C8.24022 1.58333 7.03204 2.08378 6.14124 2.97458C5.25044 3.86537 4.74999 5.07355 4.74999 6.33333V10.5315L3.16666 12.9065V14.25H15.8333V12.9065L14.25 10.5315V6.33333C14.25 5.07355 13.7495 3.86537 12.8588 2.97458C11.968 2.08378 10.7598 1.58333 9.49999 1.58333ZM10.2917 4.75V7.125H12.6667V8.70833H10.2917V11.0833H8.70833V8.70833H6.33333V7.125H8.70833V4.75H10.2917Z" fill="black"/>
</svg>
