<svg width="252" height="252" viewBox="0 0 252 252" fill="none" xmlns="http://www.w3.org/2000/svg">
<rect width="252" height="252" fill="white"/>
<path d="M216.273 201.058C228.3 186.587 236.666 169.431 240.661 151.044C244.656 132.656 244.164 113.576 239.226 95.4189C234.288 77.2615 225.049 60.5606 212.292 46.7288C199.534 32.8971 183.633 22.3415 165.933 15.9549C148.233 9.56842 129.255 7.53887 110.605 10.038C91.955 12.5371 74.1811 19.4913 58.787 30.3124C43.3929 41.1335 30.8315 55.503 22.1654 72.2055C13.4994 88.908 8.98356 107.452 9.00004 126.269C9.00709 153.623 18.6465 180.101 36.2272 201.058L36.0597 201.2C36.6459 201.904 37.3159 202.507 37.9189 203.202C38.6727 204.064 39.485 204.877 40.2639 205.714C42.5978 208.266 45.0265 210.694 47.5502 213C48.3318 213.693 49.1135 214.368 49.8952 215.027C52.5752 217.344 55.3389 219.527 58.1864 221.576C58.5549 221.828 58.8899 222.154 59.2584 222.414V222.313C78.8731 236.118 102.273 243.527 126.258 243.527C150.244 243.527 173.644 236.118 193.258 222.313V222.414C193.627 222.154 193.954 221.828 194.33 221.576C197.178 219.522 199.942 217.339 202.622 215.027C203.403 214.363 204.185 213.687 204.967 213C207.485 210.694 209.913 208.266 212.253 205.714C213.032 204.877 213.836 204.064 214.598 203.202C215.193 202.507 215.871 201.904 216.457 201.192L216.273 201.058ZM126.25 59.2689C133.704 59.2689 140.99 61.4792 147.188 65.6204C153.386 69.7615 158.216 75.6475 161.069 82.534C163.921 89.4205 164.668 96.9982 163.213 104.309C161.759 111.62 158.17 118.335 152.899 123.605C147.628 128.876 140.913 132.466 133.603 133.92C126.292 135.374 118.714 134.628 111.828 131.775C104.941 128.923 99.0552 124.092 94.914 117.894C90.7729 111.697 88.5625 104.41 88.5625 96.9564C88.5625 86.9611 92.5332 77.3751 99.601 70.3073C106.669 63.2395 116.255 59.2689 126.25 59.2689ZM59.3087 201.058C59.454 190.061 63.9229 179.564 71.7485 171.837C79.5742 164.11 90.1275 159.775 101.125 159.769H151.375C162.373 159.775 172.926 164.11 180.752 171.837C188.577 179.564 193.046 190.061 193.191 201.058C174.824 217.609 150.975 226.77 126.25 226.77C101.525 226.77 77.6764 217.609 59.3087 201.058Z" fill="black"/>
</svg>
